<mxfile host="Electron" modified="2024-06-22T10:06:04.083Z" agent="Mozilla/5.0 (Windows NT 10.0; Win64; x64) AppleWebKit/537.36 (KHTML, like Gecko) draw.io/22.0.3 Chrome/114.0.5735.289 Electron/25.8.4 Safari/537.36" etag="ABCIXOBMXD6tYFLrkWIo" version="22.0.3" type="device">
  <diagram name="第 1 页" id="O0gX7U-v6PpT-Z4nQJjL">
    <mxGraphModel dx="1206" dy="809" grid="1" gridSize="10" guides="1" tooltips="1" connect="1" arrows="1" fold="1" page="0" pageScale="1" pageWidth="827" pageHeight="1169" math="0" shadow="0">
      <root>
        <mxCell id="0" />
        <mxCell id="1" parent="0" />
        <mxCell id="NEQChuhTmv5DnA1laX8z-2" value="RDD" style="ellipse;whiteSpace=wrap;html=1;verticalAlign=top;" parent="1" vertex="1">
          <mxGeometry x="70" y="160" width="280" height="180" as="geometry" />
        </mxCell>
        <mxCell id="NEQChuhTmv5DnA1laX8z-3" value="数据子集" style="rounded=1;whiteSpace=wrap;html=1;" parent="1" vertex="1">
          <mxGeometry x="110" y="200" width="70" height="30" as="geometry" />
        </mxCell>
        <mxCell id="NEQChuhTmv5DnA1laX8z-4" value="数据子集" style="rounded=1;whiteSpace=wrap;html=1;" parent="1" vertex="1">
          <mxGeometry x="240" y="200" width="70" height="30" as="geometry" />
        </mxCell>
        <mxCell id="NEQChuhTmv5DnA1laX8z-5" value="..." style="rounded=1;whiteSpace=wrap;html=1;" parent="1" vertex="1">
          <mxGeometry x="195" y="200" width="30" height="30" as="geometry" />
        </mxCell>
        <mxCell id="NEQChuhTmv5DnA1laX8z-6" value="计算函数" style="rounded=1;whiteSpace=wrap;html=1;" parent="1" vertex="1">
          <mxGeometry x="175" y="250" width="70" height="30" as="geometry" />
        </mxCell>
        <mxCell id="NEQChuhTmv5DnA1laX8z-9" value="依赖 RDD 列表" style="rounded=1;whiteSpace=wrap;html=1;" parent="1" vertex="1">
          <mxGeometry x="160" y="290" width="95" height="30" as="geometry" />
        </mxCell>
        <mxCell id="NEQChuhTmv5DnA1laX8z-10" value="Spark Core" style="ellipse;whiteSpace=wrap;html=1;verticalAlign=top;" parent="1" vertex="1">
          <mxGeometry x="450" y="173.57" width="284.44" height="182.86" as="geometry" />
        </mxCell>
        <mxCell id="NEQChuhTmv5DnA1laX8z-11" value="数据处理 API" style="rounded=1;whiteSpace=wrap;html=1;" parent="1" vertex="1">
          <mxGeometry x="500" y="210" width="70" height="30" as="geometry" />
        </mxCell>
        <mxCell id="NEQChuhTmv5DnA1laX8z-14" value="数据处理 API" style="rounded=1;whiteSpace=wrap;html=1;" parent="1" vertex="1">
          <mxGeometry x="620" y="210" width="70" height="30" as="geometry" />
        </mxCell>
        <mxCell id="NEQChuhTmv5DnA1laX8z-15" value="..." style="rounded=1;whiteSpace=wrap;html=1;" parent="1" vertex="1">
          <mxGeometry x="577.22" y="210" width="30" height="30" as="geometry" />
        </mxCell>
        <mxCell id="NEQChuhTmv5DnA1laX8z-16" value="驱动程序 Driver" style="rounded=1;whiteSpace=wrap;html=1;" parent="1" vertex="1">
          <mxGeometry x="557.22" y="280" width="70" height="30" as="geometry" />
        </mxCell>
      </root>
    </mxGraphModel>
  </diagram>
</mxfile>
